<mxfile host="app.diagrams.net" modified="2024-03-25T07:40:03.722Z" agent="Mozilla/5.0 (Windows NT 10.0; Win64; x64) AppleWebKit/537.36 (KHTML, like Gecko) Chrome/122.0.0.0 Safari/537.36 Edg/122.0.0.0" etag="bRyKawfNbquS0P389R-N" version="24.1.0" type="github">
  <diagram id="prtHgNgQTEPvFCAcTncT" name="Page-1">
    <mxGraphModel dx="1028" dy="563" grid="1" gridSize="10" guides="1" tooltips="1" connect="1" arrows="1" fold="1" page="1" pageScale="1" pageWidth="827" pageHeight="1169" math="0" shadow="0">
      <root>
        <mxCell id="0" />
        <mxCell id="1" parent="0" />
        <mxCell id="ngzbz2J_MB0v0Skw96wV-65" value="Collection" style="rounded=1;whiteSpace=wrap;html=1;glass=0;strokeColor=#82b366;align=center;verticalAlign=middle;spacingLeft=0;spacing=2;fontFamily=Helvetica;fontSize=12;fontStyle=1;labelBorderColor=none;labelBackgroundColor=none;fillColor=#d5e8d4;" vertex="1" parent="1">
          <mxGeometry x="364" y="20" width="120" height="40" as="geometry" />
        </mxCell>
        <mxCell id="ngzbz2J_MB0v0Skw96wV-74" style="edgeStyle=orthogonalEdgeStyle;rounded=0;orthogonalLoop=1;jettySize=auto;html=1;exitX=0.5;exitY=0;exitDx=0;exitDy=0;entryX=0.5;entryY=1;entryDx=0;entryDy=0;fontFamily=Helvetica;fontSize=12;fontColor=default;fontStyle=1;labelBorderColor=none;labelBackgroundColor=none;" edge="1" parent="1" source="ngzbz2J_MB0v0Skw96wV-66" target="ngzbz2J_MB0v0Skw96wV-65">
          <mxGeometry relative="1" as="geometry" />
        </mxCell>
        <mxCell id="ngzbz2J_MB0v0Skw96wV-66" value="List" style="rounded=1;whiteSpace=wrap;html=1;glass=0;strokeColor=#82b366;align=center;verticalAlign=middle;spacingLeft=0;spacing=2;fontFamily=Helvetica;fontSize=12;fontStyle=1;labelBorderColor=none;labelBackgroundColor=none;fillColor=#d5e8d4;" vertex="1" parent="1">
          <mxGeometry x="364" y="140" width="120" height="40" as="geometry" />
        </mxCell>
        <mxCell id="ngzbz2J_MB0v0Skw96wV-73" style="edgeStyle=orthogonalEdgeStyle;rounded=0;orthogonalLoop=1;jettySize=auto;html=1;exitX=0.5;exitY=0;exitDx=0;exitDy=0;entryX=0.25;entryY=1;entryDx=0;entryDy=0;fontFamily=Helvetica;fontSize=12;fontColor=default;fontStyle=1;labelBorderColor=none;labelBackgroundColor=none;" edge="1" parent="1" source="ngzbz2J_MB0v0Skw96wV-69" target="ngzbz2J_MB0v0Skw96wV-65">
          <mxGeometry relative="1" as="geometry" />
        </mxCell>
        <mxCell id="ngzbz2J_MB0v0Skw96wV-69" value="Set" style="rounded=1;whiteSpace=wrap;html=1;glass=0;strokeColor=#82b366;align=center;verticalAlign=middle;spacingLeft=0;spacing=2;fontFamily=Helvetica;fontSize=12;fontStyle=1;labelBorderColor=none;labelBackgroundColor=none;fillColor=#d5e8d4;" vertex="1" parent="1">
          <mxGeometry x="134" y="140" width="120" height="40" as="geometry" />
        </mxCell>
        <mxCell id="ngzbz2J_MB0v0Skw96wV-75" style="edgeStyle=orthogonalEdgeStyle;rounded=0;orthogonalLoop=1;jettySize=auto;html=1;exitX=0.5;exitY=0;exitDx=0;exitDy=0;entryX=0.75;entryY=1;entryDx=0;entryDy=0;fontFamily=Helvetica;fontSize=12;fontColor=default;fontStyle=1;labelBorderColor=none;labelBackgroundColor=none;" edge="1" parent="1" source="ngzbz2J_MB0v0Skw96wV-71" target="ngzbz2J_MB0v0Skw96wV-65">
          <mxGeometry relative="1" as="geometry" />
        </mxCell>
        <mxCell id="ngzbz2J_MB0v0Skw96wV-71" value="Queue" style="rounded=1;whiteSpace=wrap;html=1;glass=0;strokeColor=#82b366;align=center;verticalAlign=middle;spacingLeft=0;spacing=2;fontFamily=Helvetica;fontSize=12;fontStyle=1;labelBorderColor=none;labelBackgroundColor=none;fillColor=#d5e8d4;" vertex="1" parent="1">
          <mxGeometry x="594" y="140" width="120" height="40" as="geometry" />
        </mxCell>
        <mxCell id="ngzbz2J_MB0v0Skw96wV-133" style="edgeStyle=orthogonalEdgeStyle;rounded=0;orthogonalLoop=1;jettySize=auto;html=1;exitX=0.75;exitY=0;exitDx=0;exitDy=0;entryX=0.25;entryY=1;entryDx=0;entryDy=0;fontFamily=Helvetica;fontSize=12;fontColor=default;fontStyle=1;labelBorderColor=none;labelBackgroundColor=none;dashed=1;" edge="1" parent="1" source="ngzbz2J_MB0v0Skw96wV-76" target="ngzbz2J_MB0v0Skw96wV-69">
          <mxGeometry relative="1" as="geometry" />
        </mxCell>
        <mxCell id="ngzbz2J_MB0v0Skw96wV-137" style="edgeStyle=orthogonalEdgeStyle;rounded=0;orthogonalLoop=1;jettySize=auto;html=1;exitX=0.25;exitY=0;exitDx=0;exitDy=0;entryX=0;entryY=0.5;entryDx=0;entryDy=0;fontFamily=Helvetica;fontSize=12;fontColor=default;fontStyle=1;labelBorderColor=none;labelBackgroundColor=none;dashed=1;" edge="1" parent="1" source="ngzbz2J_MB0v0Skw96wV-76" target="ngzbz2J_MB0v0Skw96wV-65">
          <mxGeometry relative="1" as="geometry" />
        </mxCell>
        <mxCell id="ngzbz2J_MB0v0Skw96wV-76" value="HashSet" style="rounded=1;whiteSpace=wrap;html=1;glass=0;strokeColor=#6c8ebf;align=center;verticalAlign=middle;spacingLeft=0;spacing=2;fontFamily=Helvetica;fontSize=12;fontStyle=1;labelBorderColor=none;labelBackgroundColor=none;fillColor=#dae8fc;" vertex="1" parent="1">
          <mxGeometry x="74" y="260" width="70" height="40" as="geometry" />
        </mxCell>
        <mxCell id="ngzbz2J_MB0v0Skw96wV-155" style="edgeStyle=orthogonalEdgeStyle;rounded=0;orthogonalLoop=1;jettySize=auto;html=1;exitX=0.5;exitY=0;exitDx=0;exitDy=0;entryX=0.5;entryY=1;entryDx=0;entryDy=0;fontFamily=Helvetica;fontSize=12;fontColor=default;fontStyle=1;labelBorderColor=none;labelBackgroundColor=none;" edge="1" parent="1" source="ngzbz2J_MB0v0Skw96wV-78" target="ngzbz2J_MB0v0Skw96wV-69">
          <mxGeometry relative="1" as="geometry" />
        </mxCell>
        <mxCell id="ngzbz2J_MB0v0Skw96wV-78" value="SortedSet" style="rounded=1;whiteSpace=wrap;html=1;glass=0;strokeColor=#82b366;align=center;verticalAlign=middle;spacingLeft=0;spacing=2;fontFamily=Helvetica;fontSize=12;fontStyle=1;labelBorderColor=none;labelBackgroundColor=none;fillColor=#d5e8d4;" vertex="1" parent="1">
          <mxGeometry x="154" y="260" width="80" height="40" as="geometry" />
        </mxCell>
        <mxCell id="ngzbz2J_MB0v0Skw96wV-156" style="edgeStyle=orthogonalEdgeStyle;rounded=0;orthogonalLoop=1;jettySize=auto;html=1;exitX=0.25;exitY=0;exitDx=0;exitDy=0;fontFamily=Helvetica;fontSize=12;fontColor=default;fontStyle=1;labelBorderColor=none;labelBackgroundColor=none;dashed=1;" edge="1" parent="1" source="ngzbz2J_MB0v0Skw96wV-82" target="ngzbz2J_MB0v0Skw96wV-78">
          <mxGeometry relative="1" as="geometry" />
        </mxCell>
        <mxCell id="ngzbz2J_MB0v0Skw96wV-158" style="edgeStyle=orthogonalEdgeStyle;rounded=0;orthogonalLoop=1;jettySize=auto;html=1;exitX=0.75;exitY=0;exitDx=0;exitDy=0;entryX=0;entryY=0.75;entryDx=0;entryDy=0;fontFamily=Helvetica;fontSize=12;fontColor=default;fontStyle=1;labelBorderColor=none;labelBackgroundColor=none;dashed=1;" edge="1" parent="1" source="ngzbz2J_MB0v0Skw96wV-82" target="ngzbz2J_MB0v0Skw96wV-65">
          <mxGeometry relative="1" as="geometry" />
        </mxCell>
        <mxCell id="ngzbz2J_MB0v0Skw96wV-159" style="edgeStyle=orthogonalEdgeStyle;rounded=0;orthogonalLoop=1;jettySize=auto;html=1;exitX=0.5;exitY=0;exitDx=0;exitDy=0;entryX=0.75;entryY=1;entryDx=0;entryDy=0;fontFamily=Helvetica;fontSize=12;fontColor=default;fontStyle=1;labelBorderColor=none;labelBackgroundColor=none;dashed=1;" edge="1" parent="1" source="ngzbz2J_MB0v0Skw96wV-82" target="ngzbz2J_MB0v0Skw96wV-69">
          <mxGeometry relative="1" as="geometry">
            <Array as="points">
              <mxPoint x="249" y="230" />
              <mxPoint x="224" y="230" />
            </Array>
          </mxGeometry>
        </mxCell>
        <mxCell id="ngzbz2J_MB0v0Skw96wV-82" value="TreeSet" style="rounded=1;whiteSpace=wrap;html=1;glass=0;strokeColor=#6c8ebf;align=center;verticalAlign=middle;spacingLeft=0;spacing=2;fontFamily=Helvetica;fontSize=12;fontStyle=1;labelBorderColor=none;labelBackgroundColor=none;fillColor=#dae8fc;" vertex="1" parent="1">
          <mxGeometry x="204" y="380" width="80" height="40" as="geometry" />
        </mxCell>
        <mxCell id="ngzbz2J_MB0v0Skw96wV-160" style="edgeStyle=orthogonalEdgeStyle;rounded=0;orthogonalLoop=1;jettySize=auto;html=1;exitX=0.25;exitY=0;exitDx=0;exitDy=0;entryX=0;entryY=0.25;entryDx=0;entryDy=0;fontFamily=Helvetica;fontSize=12;fontColor=default;fontStyle=1;labelBorderColor=none;labelBackgroundColor=none;dashed=1;" edge="1" parent="1" source="ngzbz2J_MB0v0Skw96wV-84" target="ngzbz2J_MB0v0Skw96wV-65">
          <mxGeometry relative="1" as="geometry" />
        </mxCell>
        <mxCell id="ngzbz2J_MB0v0Skw96wV-161" style="edgeStyle=orthogonalEdgeStyle;rounded=0;orthogonalLoop=1;jettySize=auto;html=1;exitX=0.5;exitY=0;exitDx=0;exitDy=0;entryX=0.5;entryY=1;entryDx=0;entryDy=0;fontFamily=Helvetica;fontSize=12;fontColor=default;fontStyle=1;labelBorderColor=none;labelBackgroundColor=none;" edge="1" parent="1" source="ngzbz2J_MB0v0Skw96wV-84" target="ngzbz2J_MB0v0Skw96wV-76">
          <mxGeometry relative="1" as="geometry" />
        </mxCell>
        <mxCell id="ngzbz2J_MB0v0Skw96wV-84" value="LinkedHashSet" style="rounded=1;whiteSpace=wrap;html=1;glass=0;strokeColor=#6c8ebf;align=center;verticalAlign=middle;spacingLeft=0;spacing=2;fontFamily=Helvetica;fontSize=12;fontStyle=1;labelBorderColor=none;labelBackgroundColor=none;fillColor=#dae8fc;" vertex="1" parent="1">
          <mxGeometry x="24" y="380" width="120" height="40" as="geometry" />
        </mxCell>
        <mxCell id="ngzbz2J_MB0v0Skw96wV-101" style="edgeStyle=orthogonalEdgeStyle;rounded=0;orthogonalLoop=1;jettySize=auto;html=1;exitX=0.5;exitY=0;exitDx=0;exitDy=0;entryX=0.25;entryY=1;entryDx=0;entryDy=0;fontFamily=Helvetica;fontSize=12;fontColor=default;fontStyle=1;labelBorderColor=none;labelBackgroundColor=none;dashed=1;" edge="1" parent="1" source="ngzbz2J_MB0v0Skw96wV-91" target="ngzbz2J_MB0v0Skw96wV-66">
          <mxGeometry relative="1" as="geometry" />
        </mxCell>
        <mxCell id="ngzbz2J_MB0v0Skw96wV-91" value="Vector" style="rounded=1;whiteSpace=wrap;html=1;glass=0;strokeColor=#6c8ebf;align=center;verticalAlign=middle;spacingLeft=0;spacing=2;fontFamily=Helvetica;fontSize=12;fontStyle=1;labelBorderColor=none;labelBackgroundColor=none;fillColor=#dae8fc;" vertex="1" parent="1">
          <mxGeometry x="334" y="260" width="80" height="40" as="geometry" />
        </mxCell>
        <mxCell id="ngzbz2J_MB0v0Skw96wV-165" style="edgeStyle=orthogonalEdgeStyle;rounded=0;orthogonalLoop=1;jettySize=auto;html=1;exitX=0.25;exitY=0;exitDx=0;exitDy=0;entryX=0.75;entryY=1;entryDx=0;entryDy=0;fontFamily=Helvetica;fontSize=12;fontColor=default;fontStyle=1;labelBorderColor=none;labelBackgroundColor=none;dashed=1;" edge="1" parent="1" source="ngzbz2J_MB0v0Skw96wV-93" target="ngzbz2J_MB0v0Skw96wV-66">
          <mxGeometry relative="1" as="geometry" />
        </mxCell>
        <mxCell id="ngzbz2J_MB0v0Skw96wV-166" style="edgeStyle=orthogonalEdgeStyle;rounded=0;orthogonalLoop=1;jettySize=auto;html=1;exitX=0.75;exitY=0;exitDx=0;exitDy=0;entryX=1;entryY=1;entryDx=0;entryDy=0;fontFamily=Helvetica;fontSize=12;fontColor=default;fontStyle=1;labelBorderColor=none;labelBackgroundColor=none;dashed=1;" edge="1" parent="1" source="ngzbz2J_MB0v0Skw96wV-93" target="ngzbz2J_MB0v0Skw96wV-65">
          <mxGeometry relative="1" as="geometry">
            <Array as="points">
              <mxPoint x="510" y="60" />
            </Array>
          </mxGeometry>
        </mxCell>
        <mxCell id="ngzbz2J_MB0v0Skw96wV-93" value="ArrayList" style="rounded=1;whiteSpace=wrap;html=1;glass=0;strokeColor=#6c8ebf;align=center;verticalAlign=middle;spacingLeft=0;spacing=2;fontFamily=Helvetica;fontSize=12;fontStyle=1;labelBorderColor=none;labelBackgroundColor=none;fillColor=#dae8fc;" vertex="1" parent="1">
          <mxGeometry x="450" y="260" width="80" height="40" as="geometry" />
        </mxCell>
        <mxCell id="ngzbz2J_MB0v0Skw96wV-146" style="edgeStyle=orthogonalEdgeStyle;rounded=0;orthogonalLoop=1;jettySize=auto;html=1;exitX=0.5;exitY=0;exitDx=0;exitDy=0;entryX=1;entryY=0.75;entryDx=0;entryDy=0;fontFamily=Helvetica;fontSize=12;fontColor=default;fontStyle=1;labelBorderColor=none;labelBackgroundColor=none;dashed=1;" edge="1" parent="1" source="ngzbz2J_MB0v0Skw96wV-95" target="ngzbz2J_MB0v0Skw96wV-65">
          <mxGeometry relative="1" as="geometry" />
        </mxCell>
        <mxCell id="ngzbz2J_MB0v0Skw96wV-147" style="edgeStyle=orthogonalEdgeStyle;rounded=0;orthogonalLoop=1;jettySize=auto;html=1;exitX=0.25;exitY=0;exitDx=0;exitDy=0;entryX=0.5;entryY=1;entryDx=0;entryDy=0;fontFamily=Helvetica;fontSize=12;fontColor=default;fontStyle=1;labelBorderColor=none;labelBackgroundColor=none;dashed=1;" edge="1" parent="1" source="ngzbz2J_MB0v0Skw96wV-95" target="ngzbz2J_MB0v0Skw96wV-66">
          <mxGeometry relative="1" as="geometry">
            <Array as="points">
              <mxPoint x="517" y="330" />
              <mxPoint x="424" y="330" />
            </Array>
          </mxGeometry>
        </mxCell>
        <mxCell id="ngzbz2J_MB0v0Skw96wV-152" style="edgeStyle=orthogonalEdgeStyle;rounded=0;orthogonalLoop=1;jettySize=auto;html=1;exitX=0.75;exitY=0;exitDx=0;exitDy=0;entryX=0.25;entryY=1;entryDx=0;entryDy=0;fontFamily=Helvetica;fontSize=12;fontColor=default;fontStyle=1;labelBorderColor=none;labelBackgroundColor=none;dashed=1;" edge="1" parent="1" source="ngzbz2J_MB0v0Skw96wV-95" target="ngzbz2J_MB0v0Skw96wV-108">
          <mxGeometry relative="1" as="geometry" />
        </mxCell>
        <mxCell id="ngzbz2J_MB0v0Skw96wV-95" value="LinkedList" style="rounded=1;whiteSpace=wrap;html=1;glass=0;strokeColor=#6c8ebf;align=center;verticalAlign=middle;spacingLeft=0;spacing=2;fontFamily=Helvetica;fontSize=12;fontStyle=1;labelBorderColor=none;labelBackgroundColor=none;fillColor=#dae8fc;" vertex="1" parent="1">
          <mxGeometry x="494" y="380" width="90" height="40" as="geometry" />
        </mxCell>
        <mxCell id="ngzbz2J_MB0v0Skw96wV-99" style="edgeStyle=orthogonalEdgeStyle;rounded=0;orthogonalLoop=1;jettySize=auto;html=1;exitX=0.5;exitY=0;exitDx=0;exitDy=0;entryX=0.5;entryY=1;entryDx=0;entryDy=0;fontFamily=Helvetica;fontSize=12;fontColor=default;fontStyle=1;labelBorderColor=none;labelBackgroundColor=none;" edge="1" parent="1" source="ngzbz2J_MB0v0Skw96wV-97" target="ngzbz2J_MB0v0Skw96wV-91">
          <mxGeometry relative="1" as="geometry" />
        </mxCell>
        <mxCell id="ngzbz2J_MB0v0Skw96wV-162" style="edgeStyle=orthogonalEdgeStyle;rounded=0;orthogonalLoop=1;jettySize=auto;html=1;exitX=0.25;exitY=0;exitDx=0;exitDy=0;entryX=0;entryY=1;entryDx=0;entryDy=0;fontFamily=Helvetica;fontSize=12;fontColor=default;fontStyle=1;labelBorderColor=none;labelBackgroundColor=none;dashed=1;" edge="1" parent="1" source="ngzbz2J_MB0v0Skw96wV-97" target="ngzbz2J_MB0v0Skw96wV-65">
          <mxGeometry relative="1" as="geometry">
            <Array as="points">
              <mxPoint x="317" y="60" />
            </Array>
          </mxGeometry>
        </mxCell>
        <mxCell id="ngzbz2J_MB0v0Skw96wV-97" value="Stack" style="rounded=1;whiteSpace=wrap;html=1;glass=0;strokeColor=#6c8ebf;align=center;verticalAlign=middle;spacingLeft=0;spacing=2;fontFamily=Helvetica;fontSize=12;fontStyle=1;labelBorderColor=none;labelBackgroundColor=none;fillColor=#dae8fc;" vertex="1" parent="1">
          <mxGeometry x="304" y="380" width="50" height="40" as="geometry" />
        </mxCell>
        <mxCell id="ngzbz2J_MB0v0Skw96wV-151" style="edgeStyle=orthogonalEdgeStyle;rounded=0;orthogonalLoop=1;jettySize=auto;html=1;exitX=0.5;exitY=0;exitDx=0;exitDy=0;entryX=0.5;entryY=1;entryDx=0;entryDy=0;fontFamily=Helvetica;fontSize=12;fontColor=default;fontStyle=1;labelBorderColor=none;labelBackgroundColor=none;" edge="1" parent="1" source="ngzbz2J_MB0v0Skw96wV-108" target="ngzbz2J_MB0v0Skw96wV-71">
          <mxGeometry relative="1" as="geometry" />
        </mxCell>
        <mxCell id="ngzbz2J_MB0v0Skw96wV-108" value="Deque" style="rounded=1;whiteSpace=wrap;html=1;glass=0;strokeColor=#82b366;align=center;verticalAlign=middle;spacingLeft=0;spacing=2;fontFamily=Helvetica;fontSize=12;fontStyle=1;labelBorderColor=none;labelBackgroundColor=none;fillColor=#d5e8d4;" vertex="1" parent="1">
          <mxGeometry x="664" y="260" width="80" height="40" as="geometry" />
        </mxCell>
        <mxCell id="ngzbz2J_MB0v0Skw96wV-148" style="edgeStyle=orthogonalEdgeStyle;rounded=0;orthogonalLoop=1;jettySize=auto;html=1;exitX=0.5;exitY=0;exitDx=0;exitDy=0;entryX=0.25;entryY=1;entryDx=0;entryDy=0;fontFamily=Helvetica;fontSize=12;fontColor=default;fontStyle=1;labelBorderColor=none;labelBackgroundColor=none;dashed=1;" edge="1" parent="1" source="ngzbz2J_MB0v0Skw96wV-110" target="ngzbz2J_MB0v0Skw96wV-71">
          <mxGeometry relative="1" as="geometry" />
        </mxCell>
        <mxCell id="ngzbz2J_MB0v0Skw96wV-149" style="edgeStyle=orthogonalEdgeStyle;rounded=0;orthogonalLoop=1;jettySize=auto;html=1;exitX=0.25;exitY=0;exitDx=0;exitDy=0;entryX=1;entryY=0.5;entryDx=0;entryDy=0;fontFamily=Helvetica;fontSize=12;fontColor=default;fontStyle=1;labelBorderColor=none;labelBackgroundColor=none;dashed=1;" edge="1" parent="1" source="ngzbz2J_MB0v0Skw96wV-110" target="ngzbz2J_MB0v0Skw96wV-65">
          <mxGeometry relative="1" as="geometry" />
        </mxCell>
        <mxCell id="ngzbz2J_MB0v0Skw96wV-110" value="ProrityQueue" style="rounded=1;whiteSpace=wrap;html=1;glass=0;strokeColor=#6c8ebf;align=center;verticalAlign=middle;spacingLeft=0;spacing=2;fontFamily=Helvetica;fontSize=12;fontStyle=1;labelBorderColor=none;labelBackgroundColor=none;fillColor=#dae8fc;" vertex="1" parent="1">
          <mxGeometry x="564" y="260" width="80" height="40" as="geometry" />
        </mxCell>
        <mxCell id="ngzbz2J_MB0v0Skw96wV-153" style="edgeStyle=orthogonalEdgeStyle;rounded=0;orthogonalLoop=1;jettySize=auto;html=1;exitX=0.5;exitY=0;exitDx=0;exitDy=0;entryX=0.5;entryY=1;entryDx=0;entryDy=0;fontFamily=Helvetica;fontSize=12;fontColor=default;fontStyle=1;labelBorderColor=none;labelBackgroundColor=none;dashed=1;" edge="1" parent="1" source="ngzbz2J_MB0v0Skw96wV-112" target="ngzbz2J_MB0v0Skw96wV-108">
          <mxGeometry relative="1" as="geometry" />
        </mxCell>
        <mxCell id="ngzbz2J_MB0v0Skw96wV-154" style="edgeStyle=orthogonalEdgeStyle;rounded=0;orthogonalLoop=1;jettySize=auto;html=1;exitX=0.75;exitY=0;exitDx=0;exitDy=0;entryX=1;entryY=0.25;entryDx=0;entryDy=0;fontFamily=Helvetica;fontSize=12;fontColor=default;fontStyle=1;labelBorderColor=none;labelBackgroundColor=none;dashed=1;" edge="1" parent="1" source="ngzbz2J_MB0v0Skw96wV-112" target="ngzbz2J_MB0v0Skw96wV-65">
          <mxGeometry relative="1" as="geometry" />
        </mxCell>
        <mxCell id="ngzbz2J_MB0v0Skw96wV-112" value="ArrayDeque" style="rounded=1;whiteSpace=wrap;html=1;glass=0;strokeColor=#6c8ebf;align=center;verticalAlign=middle;spacingLeft=0;spacing=2;fontFamily=Helvetica;fontSize=12;fontStyle=1;labelBorderColor=none;labelBackgroundColor=none;fillColor=#dae8fc;" vertex="1" parent="1">
          <mxGeometry x="714" y="380" width="80" height="40" as="geometry" />
        </mxCell>
        <mxCell id="ngzbz2J_MB0v0Skw96wV-122" style="edgeStyle=orthogonalEdgeStyle;rounded=0;orthogonalLoop=1;jettySize=auto;html=1;exitX=0.25;exitY=0;exitDx=0;exitDy=0;entryX=0.377;entryY=1.01;entryDx=0;entryDy=0;entryPerimeter=0;fontFamily=Helvetica;fontSize=12;fontColor=default;fontStyle=1;labelBorderColor=none;labelBackgroundColor=none;dashed=1;" edge="1" parent="1" source="ngzbz2J_MB0v0Skw96wV-91" target="ngzbz2J_MB0v0Skw96wV-65">
          <mxGeometry relative="1" as="geometry">
            <Array as="points">
              <mxPoint x="354" y="120" />
              <mxPoint x="409" y="120" />
            </Array>
          </mxGeometry>
        </mxCell>
        <mxCell id="ngzbz2J_MB0v0Skw96wV-167" value="Map" style="rounded=1;whiteSpace=wrap;html=1;glass=0;strokeColor=#82b366;align=center;verticalAlign=middle;spacingLeft=0;spacing=2;fontFamily=Helvetica;fontSize=12;fontStyle=1;labelBorderColor=none;labelBackgroundColor=none;fillColor=#d5e8d4;" vertex="1" parent="1">
          <mxGeometry x="354" y="480" width="120" height="40" as="geometry" />
        </mxCell>
        <mxCell id="ngzbz2J_MB0v0Skw96wV-174" style="edgeStyle=orthogonalEdgeStyle;rounded=0;orthogonalLoop=1;jettySize=auto;html=1;exitX=0.5;exitY=0;exitDx=0;exitDy=0;entryX=0.25;entryY=1;entryDx=0;entryDy=0;fontFamily=Helvetica;fontSize=12;fontColor=default;fontStyle=1;labelBorderColor=none;labelBackgroundColor=none;dashed=1;" edge="1" parent="1" source="ngzbz2J_MB0v0Skw96wV-168" target="ngzbz2J_MB0v0Skw96wV-167">
          <mxGeometry relative="1" as="geometry" />
        </mxCell>
        <mxCell id="ngzbz2J_MB0v0Skw96wV-168" value="HashMap" style="rounded=1;whiteSpace=wrap;html=1;glass=0;strokeColor=#6c8ebf;align=center;verticalAlign=middle;spacingLeft=0;spacing=2;fontFamily=Helvetica;fontSize=12;fontStyle=1;labelBorderColor=none;labelBackgroundColor=none;fillColor=#dae8fc;" vertex="1" parent="1">
          <mxGeometry x="194" y="600" width="80" height="40" as="geometry" />
        </mxCell>
        <mxCell id="ngzbz2J_MB0v0Skw96wV-175" style="edgeStyle=orthogonalEdgeStyle;rounded=0;orthogonalLoop=1;jettySize=auto;html=1;exitX=0.5;exitY=0;exitDx=0;exitDy=0;entryX=0.5;entryY=1;entryDx=0;entryDy=0;fontFamily=Helvetica;fontSize=12;fontColor=default;fontStyle=1;labelBorderColor=none;labelBackgroundColor=none;dashed=1;" edge="1" parent="1" source="ngzbz2J_MB0v0Skw96wV-170" target="ngzbz2J_MB0v0Skw96wV-167">
          <mxGeometry relative="1" as="geometry" />
        </mxCell>
        <mxCell id="ngzbz2J_MB0v0Skw96wV-170" value="HashTable" style="rounded=1;whiteSpace=wrap;html=1;glass=0;strokeColor=#6c8ebf;align=center;verticalAlign=middle;spacingLeft=0;spacing=2;fontFamily=Helvetica;fontSize=12;fontStyle=1;labelBorderColor=none;labelBackgroundColor=none;fillColor=#dae8fc;" vertex="1" parent="1">
          <mxGeometry x="374" y="600" width="80" height="40" as="geometry" />
        </mxCell>
        <mxCell id="ngzbz2J_MB0v0Skw96wV-176" style="edgeStyle=orthogonalEdgeStyle;rounded=0;orthogonalLoop=1;jettySize=auto;html=1;exitX=0.5;exitY=0;exitDx=0;exitDy=0;entryX=0.75;entryY=1;entryDx=0;entryDy=0;fontFamily=Helvetica;fontSize=12;fontColor=default;fontStyle=1;labelBorderColor=none;labelBackgroundColor=none;" edge="1" parent="1" source="ngzbz2J_MB0v0Skw96wV-172" target="ngzbz2J_MB0v0Skw96wV-167">
          <mxGeometry relative="1" as="geometry" />
        </mxCell>
        <mxCell id="ngzbz2J_MB0v0Skw96wV-172" value="SortedMap" style="rounded=1;whiteSpace=wrap;html=1;glass=0;strokeColor=#82b366;align=center;verticalAlign=middle;spacingLeft=0;spacing=2;fontFamily=Helvetica;fontSize=12;fontStyle=1;labelBorderColor=none;labelBackgroundColor=none;fillColor=#d5e8d4;" vertex="1" parent="1">
          <mxGeometry x="550" y="600" width="80" height="40" as="geometry" />
        </mxCell>
        <mxCell id="ngzbz2J_MB0v0Skw96wV-190" style="edgeStyle=orthogonalEdgeStyle;rounded=0;orthogonalLoop=1;jettySize=auto;html=1;exitX=0.25;exitY=0;exitDx=0;exitDy=0;entryX=0.5;entryY=1;entryDx=0;entryDy=0;fontFamily=Helvetica;fontSize=12;fontColor=default;fontStyle=1;labelBorderColor=none;labelBackgroundColor=none;" edge="1" parent="1" source="ngzbz2J_MB0v0Skw96wV-177" target="ngzbz2J_MB0v0Skw96wV-168">
          <mxGeometry relative="1" as="geometry" />
        </mxCell>
        <mxCell id="ngzbz2J_MB0v0Skw96wV-177" value="LinkedHashMap" style="rounded=1;whiteSpace=wrap;html=1;glass=0;strokeColor=#6c8ebf;align=center;verticalAlign=middle;spacingLeft=0;spacing=2;fontFamily=Helvetica;fontSize=12;fontStyle=1;labelBorderColor=none;labelBackgroundColor=none;fillColor=#dae8fc;" vertex="1" parent="1">
          <mxGeometry x="204" y="710" width="120" height="40" as="geometry" />
        </mxCell>
        <mxCell id="ngzbz2J_MB0v0Skw96wV-188" style="edgeStyle=orthogonalEdgeStyle;rounded=0;orthogonalLoop=1;jettySize=auto;html=1;exitX=0.75;exitY=0;exitDx=0;exitDy=0;entryX=0.5;entryY=1;entryDx=0;entryDy=0;fontFamily=Helvetica;fontSize=12;fontColor=default;fontStyle=1;labelBorderColor=none;labelBackgroundColor=none;dashed=1;" edge="1" parent="1" source="ngzbz2J_MB0v0Skw96wV-179" target="ngzbz2J_MB0v0Skw96wV-172">
          <mxGeometry relative="1" as="geometry" />
        </mxCell>
        <mxCell id="ngzbz2J_MB0v0Skw96wV-179" value="TreeMap" style="rounded=1;whiteSpace=wrap;html=1;glass=0;strokeColor=#6c8ebf;align=center;verticalAlign=middle;spacingLeft=0;spacing=2;fontFamily=Helvetica;fontSize=12;fontStyle=1;labelBorderColor=none;labelBackgroundColor=none;fillColor=#dae8fc;" vertex="1" parent="1">
          <mxGeometry x="500" y="720" width="120" height="40" as="geometry" />
        </mxCell>
        <mxCell id="ngzbz2J_MB0v0Skw96wV-193" style="edgeStyle=orthogonalEdgeStyle;rounded=0;orthogonalLoop=1;jettySize=auto;html=1;exitX=0.75;exitY=0;exitDx=0;exitDy=0;entryX=0.38;entryY=0.99;entryDx=0;entryDy=0;entryPerimeter=0;fontFamily=Helvetica;fontSize=12;fontColor=default;fontStyle=1;labelBorderColor=none;labelBackgroundColor=none;dashed=1;" edge="1" parent="1" source="ngzbz2J_MB0v0Skw96wV-177" target="ngzbz2J_MB0v0Skw96wV-167">
          <mxGeometry relative="1" as="geometry">
            <Array as="points">
              <mxPoint x="294" y="580" />
              <mxPoint x="400" y="580" />
            </Array>
          </mxGeometry>
        </mxCell>
        <mxCell id="ngzbz2J_MB0v0Skw96wV-194" style="edgeStyle=orthogonalEdgeStyle;rounded=0;orthogonalLoop=1;jettySize=auto;html=1;exitX=0.25;exitY=0;exitDx=0;exitDy=0;entryX=0.627;entryY=0.99;entryDx=0;entryDy=0;entryPerimeter=0;fontFamily=Helvetica;fontSize=12;fontColor=default;fontStyle=1;labelBorderColor=none;labelBackgroundColor=none;dashed=1;" edge="1" parent="1" source="ngzbz2J_MB0v0Skw96wV-179" target="ngzbz2J_MB0v0Skw96wV-167">
          <mxGeometry relative="1" as="geometry">
            <Array as="points">
              <mxPoint x="530" y="580" />
              <mxPoint x="429" y="580" />
            </Array>
          </mxGeometry>
        </mxCell>
      </root>
    </mxGraphModel>
  </diagram>
</mxfile>
